<svg width="145.641739" height="165.744141" viewBox="0 0 145.642 165.744" fill="none" xmlns="http://www.w3.org/2000/svg" xmlns:xlink="http://www.w3.org/1999/xlink">
	<desc>
			Created with Pixso.
	</desc>
	<defs>
		<linearGradient x1="53.530025" y1="37.667973" x2="50.531013" y2="45.325848" id="paint_linear_1_491_0" gradientUnits="userSpaceOnUse">
			<stop stop-color="#FFE89E"/>
			<stop offset="1.000000" stop-color="#FFBF1A"/>
		</linearGradient>
		<linearGradient x1="47.775372" y1="24.125576" x2="45.779137" y2="29.222887" id="paint_linear_1_494_0" gradientUnits="userSpaceOnUse">
			<stop stop-color="#FFE89E"/>
			<stop offset="1.000000" stop-color="#FFBF1A"/>
		</linearGradient>
		<linearGradient x1="34.287960" y1="9.187750" x2="31.288948" y2="16.845625" id="paint_linear_1_497_0" gradientUnits="userSpaceOnUse">
			<stop stop-color="#FFE89E"/>
			<stop offset="1.000000" stop-color="#FFBF1A"/>
		</linearGradient>
		<linearGradient x1="32.855381" y1="40.109631" x2="28.443134" y2="51.376152" id="paint_linear_1_500_0" gradientUnits="userSpaceOnUse">
			<stop stop-color="#FFE89E"/>
			<stop offset="1.000000" stop-color="#FFBF1A"/>
		</linearGradient>
		<linearGradient x1="92.111649" y1="37.667973" x2="95.110664" y2="45.325848" id="paint_linear_1_511_0" gradientUnits="userSpaceOnUse">
			<stop stop-color="#FFE89E"/>
			<stop offset="1.000000" stop-color="#FFBF1A"/>
		</linearGradient>
		<linearGradient x1="97.866310" y1="24.125576" x2="99.862541" y2="29.222887" id="paint_linear_1_514_0" gradientUnits="userSpaceOnUse">
			<stop stop-color="#FFE89E"/>
			<stop offset="1.000000" stop-color="#FFBF1A"/>
		</linearGradient>
		<linearGradient x1="111.353714" y1="9.187750" x2="114.352730" y2="16.845625" id="paint_linear_1_517_0" gradientUnits="userSpaceOnUse">
			<stop stop-color="#FFE89E"/>
			<stop offset="1.000000" stop-color="#FFBF1A"/>
		</linearGradient>
		<linearGradient x1="112.786301" y1="40.109631" x2="117.198547" y2="51.376152" id="paint_linear_1_520_0" gradientUnits="userSpaceOnUse">
			<stop stop-color="#FFE89E"/>
			<stop offset="1.000000" stop-color="#FFBF1A"/>
		</linearGradient>
		<linearGradient x1="57.909843" y1="92.134766" x2="21.857254" y2="190.678467" id="paint_linear_1_531_0" gradientUnits="userSpaceOnUse">
			<stop stop-color="#FFD481"/>
			<stop offset="1.000000" stop-color="#FA620C"/>
		</linearGradient>
		<linearGradient x1="43.225372" y1="99.694397" x2="151.620102" y2="216.100967" id="paint_linear_1_535_0" gradientUnits="userSpaceOnUse">
			<stop stop-color="#FFD481"/>
			<stop offset="0.833110" stop-color="#FA620C"/>
		</linearGradient>
		<linearGradient x1="29.075279" y1="96.584946" x2="-3.292824" y2="136.569092" id="paint_linear_1_536_0" gradientUnits="userSpaceOnUse">
			<stop stop-color="#FFD481"/>
			<stop offset="1.000000" stop-color="#FA620C"/>
		</linearGradient>
		<linearGradient x1="122.334320" y1="96.584946" x2="140.341278" y2="136.569077" id="paint_linear_1_540_0" gradientUnits="userSpaceOnUse">
			<stop stop-color="#FFD481"/>
			<stop offset="1.000000" stop-color="#FA620C"/>
		</linearGradient>
		<linearGradient x1="58.389568" y1="76.520927" x2="57.576721" y2="99.496246" id="paint_linear_1_541_0" gradientUnits="userSpaceOnUse">
			<stop stop-color="#FF9F81"/>
			<stop offset="1.000000" stop-color="#F53838"/>
		</linearGradient>
		<linearGradient x1="91.569092" y1="60.205917" x2="90.783745" y2="82.407112" id="paint_linear_1_542_0" gradientUnits="userSpaceOnUse">
			<stop stop-color="#FF9F81"/>
			<stop offset="1.000000" stop-color="#F53838"/>
		</linearGradient>
		<linearGradient x1="60.122128" y1="47.497490" x2="59.488731" y2="65.400574" id="paint_linear_1_543_0" gradientUnits="userSpaceOnUse">
			<stop stop-color="#FF9F81"/>
			<stop offset="1.000000" stop-color="#F53838"/>
		</linearGradient>
		<linearGradient x1="85.415894" y1="33.197720" x2="84.842972" y2="49.393059" id="paint_linear_1_544_0" gradientUnits="userSpaceOnUse">
			<stop stop-color="#FF9F81"/>
			<stop offset="1.000000" stop-color="#F53838"/>
		</linearGradient>
		<linearGradient x1="73.290192" y1="18.579773" x2="73.290192" y2="199.903717" id="paint_linear_1_550_0" gradientUnits="userSpaceOnUse">
			<stop stop-color="#FFFFFF" stop-opacity="0.000000"/>
			<stop offset="1.000000" stop-color="#FE9277"/>
		</linearGradient>
	</defs>
	<path id="Union" d="M51.8456 39.8819C52.5023 38.4561 53.2716 37.3486 53.7799 36.7646C53.7899 38.142 53.5776 39.3775 53.2489 40.4513C54.2603 40.9391 55.3114 41.6223 56.3156 42.565C55.5417 42.5416 54.2064 42.3542 52.7138 41.868C52.0258 43.3853 51.1561 44.4328 50.5859 44.9205C50.6245 43.6437 50.8932 42.42 51.2706 41.3162C50.204 40.8435 49.1232 40.2097 48.1597 39.371C48.9049 39.2836 50.2646 39.3566 51.8456 39.8819Z" clip-rule="evenodd" fill="url(#paint_linear_1_491_0)" fill-opacity="1.000000" fill-rule="evenodd"/>
	<path id="Union" d="M46.6542 25.5992C47.0913 24.6502 47.6034 23.913 47.9417 23.5243C47.9484 24.4411 47.8071 25.2635 47.5883 25.9782C48.2615 26.303 48.9611 26.7577 49.6296 27.3851C49.1144 27.3696 48.2256 27.2448 47.2321 26.9213C46.7741 27.9312 46.1952 28.6285 45.8157 28.9531C45.8414 28.1032 46.0202 27.2886 46.2714 26.5539C45.5615 26.2393 44.8421 25.8174 44.2007 25.2591C44.6968 25.2009 45.6018 25.2495 46.6542 25.5992Z" clip-rule="evenodd" fill="url(#paint_linear_1_494_0)" fill-opacity="1.000000" fill-rule="evenodd"/>
	<path id="Union" d="M32.6035 11.4016C33.2603 9.97589 34.0295 8.86835 34.5379 8.28436C34.5478 9.66174 34.3355 10.8972 34.0069 11.971C35.0183 12.4589 36.0693 13.1421 37.0736 14.0847C36.2997 14.0613 34.9643 13.8739 33.4718 13.3878C32.7837 14.905 31.914 15.9526 31.3438 16.4403C31.3824 15.1635 31.6511 13.9397 32.0285 12.8359C30.9619 12.3632 29.8812 11.7294 28.9177 10.8907C29.6629 10.8033 31.0225 10.8763 32.6035 11.4016Z" clip-rule="evenodd" fill="url(#paint_linear_1_497_0)" fill-opacity="1.000000" fill-rule="evenodd"/>
	<path id="Union" d="M30.3771 43.3668C31.3434 41.2692 32.4751 39.6397 33.223 38.7806C33.2377 40.807 32.9254 42.6247 32.4418 44.2045C33.9298 44.9223 35.4761 45.9274 36.9536 47.3143C35.8151 47.2798 33.8505 47.0041 31.6546 46.2889C30.6423 48.5211 29.3628 50.0623 28.5238 50.7798C28.5807 48.9013 28.9759 47.101 29.5312 45.4769C27.962 44.7816 26.3719 43.8491 24.9544 42.6151C26.0508 42.4866 28.0511 42.5939 30.3771 43.3668Z" clip-rule="evenodd" fill="url(#paint_linear_1_500_0)" fill-opacity="1.000000" fill-rule="evenodd"/>
	<circle id="Ellipse 199" r="0.846528" transform="matrix(0.931142 0.364658 -0.364658 0.931142 36.1902 29.0106)" fill="#2F235A" fill-opacity="1.000000"/>
	<circle id="Ellipse 200" r="0.846528" transform="matrix(0.931142 0.364658 -0.364658 0.931142 57.1504 18.3666)" fill="#FE9076" fill-opacity="1.000000"/>
	<circle id="Ellipse 201" r="0.846528" transform="matrix(0.931142 0.364658 -0.364658 0.931142 16.9153 22.9909)" fill="#FFA400" fill-opacity="1.000000"/>
	<circle id="Ellipse 202" r="0.846528" transform="matrix(0.931142 0.364658 -0.364658 0.931142 35.0933 57.0762)" fill="#23BB86" fill-opacity="1.000000"/>
	<path id="Vector 95" d="M56.5 14.32C55.68 11.17 52.71 3.98 47.4 0.36" stroke="#FE9076" stroke-opacity="1.000000" stroke-width="0.736823" stroke-linecap="round"/>
	<path id="Vector 96" d="M14.41 19.57C12.36 17.05 6.68 11.72 0.36 10.62" stroke="#FFA400" stroke-opacity="1.000000" stroke-width="0.736823" stroke-linecap="round"/>
	<path id="Vector 97" d="M31.49 58.3C29.67 58.96 25.1 61.07 21.34 64.22" stroke="#23BB86" stroke-opacity="1.000000" stroke-width="0.736823" stroke-linecap="round"/>
	<path id="Union" d="M93.7961 39.8819C93.1394 38.4561 92.3701 37.3486 91.8617 36.7646C91.8518 38.142 92.0641 39.3775 92.3928 40.4513C91.3814 40.9391 90.3303 41.6223 89.3261 42.565C90.0999 42.5416 91.4353 42.3542 92.9278 41.868C93.6159 43.3853 94.4856 44.4328 95.0558 44.9205C95.0172 43.6437 94.7485 42.42 94.3711 41.3162C95.4377 40.8435 96.5185 40.2097 97.482 39.371C96.7367 39.2836 95.3771 39.3566 93.7961 39.8819Z" clip-rule="evenodd" fill="url(#paint_linear_1_511_0)" fill-opacity="1.000000" fill-rule="evenodd"/>
	<path id="Union" d="M98.9875 25.5992C98.5504 24.6502 98.0383 23.913 97.7 23.5243C97.6933 24.4411 97.8346 25.2635 98.0534 25.9782C97.3802 26.303 96.6806 26.7577 96.0121 27.3851C96.5272 27.3696 97.4161 27.2448 98.4096 26.9213C98.8675 27.9312 99.4465 28.6285 99.826 28.9531C99.8003 28.1032 99.6215 27.2886 99.3703 26.5539C100.08 26.2393 100.8 25.8174 101.441 25.2591C100.945 25.2009 100.04 25.2495 98.9875 25.5992Z" clip-rule="evenodd" fill="url(#paint_linear_1_514_0)" fill-opacity="1.000000" fill-rule="evenodd"/>
	<path id="Union" d="M113.038 11.4016C112.381 9.97589 111.612 8.86835 111.104 8.28436C111.094 9.66174 111.306 10.8972 111.635 11.971C110.623 12.4589 109.572 13.1421 108.568 14.0847C109.342 14.0613 110.677 13.8739 112.17 13.3878C112.858 14.905 113.728 15.9526 114.298 16.4403C114.259 15.1635 113.991 13.9397 113.613 12.8359C114.68 12.3632 115.761 11.7294 116.724 10.8907C115.979 10.8033 114.619 10.8763 113.038 11.4016Z" clip-rule="evenodd" fill="url(#paint_linear_1_517_0)" fill-opacity="1.000000" fill-rule="evenodd"/>
	<path id="Union" d="M115.265 43.3668C114.298 41.2692 113.167 39.6397 112.419 38.7806C112.404 40.807 112.716 42.6247 113.2 44.2045C111.712 44.9223 110.166 45.9274 108.688 47.3143C109.827 47.2798 111.791 47.0041 113.987 46.2889C114.999 48.5211 116.279 50.0623 117.118 50.7798C117.061 48.9013 116.666 47.101 116.111 45.4769C117.68 44.7816 119.27 43.8491 120.687 42.6151C119.591 42.4866 117.591 42.5939 115.265 43.3668Z" clip-rule="evenodd" fill="url(#paint_linear_1_520_0)" fill-opacity="1.000000" fill-rule="evenodd"/>
	<circle id="Ellipse 199" r="0.846528" transform="matrix(-0.931142 0.364658 0.364658 0.931142 109.451 29.0106)" fill="#2F235A" fill-opacity="1.000000"/>
	<circle id="Ellipse 200" r="0.846528" transform="matrix(-0.931142 0.364658 0.364658 0.931142 88.4913 18.3666)" fill="#FE9076" fill-opacity="1.000000"/>
	<circle id="Ellipse 201" r="0.846528" transform="matrix(-0.931142 0.364658 0.364658 0.931142 128.726 22.9909)" fill="#FFA400" fill-opacity="1.000000"/>
	<circle id="Ellipse 202" r="0.846528" transform="matrix(-0.931142 0.364658 0.364658 0.931142 110.548 57.0762)" fill="#23BB86" fill-opacity="1.000000"/>
	<path id="Vector 95" d="M89.13 14.32C89.95 11.17 92.93 3.98 98.23 0.36" stroke="#FE9076" stroke-opacity="1.000000" stroke-width="0.736823" stroke-linecap="round"/>
	<path id="Vector 96" d="M131.22 19.57C133.27 17.05 138.95 11.72 145.27 10.62" stroke="#FFA400" stroke-opacity="1.000000" stroke-width="0.736823" stroke-linecap="round"/>
	<path id="Vector 97" d="M114.15 58.3C115.96 58.96 120.53 61.07 124.29 64.22" stroke="#23BB86" stroke-opacity="1.000000" stroke-width="0.736823" stroke-linecap="round"/>
	<rect id="Rectangle 320" x="27.895638" y="103.633850" width="89.850471" height="62.110287" fill="url(#paint_linear_1_531_0)" fill-opacity="1.000000"/>
	<mask id="mask1_533" mask-type="alpha" maskUnits="userSpaceOnUse" x="27.895638" y="103.633850" width="89.850471" height="62.110291">
		<rect id="Rectangle 322" x="27.895638" y="103.633850" width="89.850471" height="62.110287" fill="#C4C4C4" fill-opacity="1.000000"/>
	</mask>
	<g mask="url(#mask1_533)">
		<path id="Rectangle 325" d="M32.14 102.05L93.32 102.05L79.5 126.06L18.31 126.06L32.14 102.05Z" fill="#000000" fill-opacity="0.070000" fill-rule="nonzero"/>
	</g>
	<g mask="url(#mask1_533)">
		<rect id="Rectangle 321" x="88.997505" y="103.633850" width="89.850471" height="62.110287" fill="url(#paint_linear_1_535_0)" fill-opacity="1.000000"/>
	</g>
	<path id="Rectangle 323" d="M27.81 103.63L88.99 103.63L77.17 123.35L15.99 123.35L27.81 103.63Z" fill="url(#paint_linear_1_536_0)" fill-opacity="1.000000" fill-rule="nonzero"/>
	<mask id="mask1_538" mask-type="alpha" maskUnits="userSpaceOnUse" x="88.998177" y="103.633850" width="28.747917" height="62.110291">
		<rect id="Rectangle 326" x="88.998177" y="103.633850" width="28.747917" height="62.110287" fill="#C4C4C4" fill-opacity="1.000000"/>
	</mask>
	<g mask="url(#mask1_538)">
		<path id="Rectangle 327" d="M114.24 103.53L85.45 103.53L98.98 126.23L127.77 126.23L114.24 103.53Z" fill="#000000" fill-opacity="0.070000" fill-rule="nonzero"/>
	</g>
	<path id="Rectangle 324" d="M117.79 103.63L88.99 103.63L100.81 123.35L129.61 123.35L117.79 103.63Z" fill="url(#paint_linear_1_540_0)" fill-opacity="1.000000" fill-rule="nonzero"/>
	<circle id="Ellipse 206" cx="57.746567" cy="87.814026" r="8.490823" fill="url(#paint_linear_1_541_0)" fill-opacity="1.000000"/>
	<circle id="Ellipse 207" cx="90.947845" cy="71.118469" r="8.204732" fill="url(#paint_linear_1_542_0)" fill-opacity="1.000000"/>
	<circle id="Ellipse 208" cx="59.621078" cy="56.297424" r="6.616309" fill="url(#paint_linear_1_543_0)" fill-opacity="1.000000"/>
	<circle id="Ellipse 212" cx="84.962677" cy="41.158203" r="5.985191" fill="url(#paint_linear_1_544_0)" fill-opacity="1.000000"/>
	<circle id="Ellipse 221" cx="75.222458" cy="63.580994" r="1.650000" fill="#FFA800" fill-opacity="0.230000"/>
	<circle id="Ellipse 224" cx="100.802597" cy="51.331116" r="1.650000" fill="#FFA800" fill-opacity="0.230000"/>
	<circle id="Ellipse 225" cx="61.271103" cy="31.622131" r="1.650000" fill="#FFA800" fill-opacity="0.230000"/>
	<circle id="Ellipse 222" cx="83.312668" cy="91.478577" r="1.650000" fill="#FFA800" fill-opacity="0.230000"/>
	<circle id="Ellipse 223" cx="45.162460" cy="65.231018" r="1.650000" fill="#FFA800" fill-opacity="0.230000"/>
	<path id="Vector 99" d="M27.82 103.92L117.95 103.92L134.58 18.57L13.98 18.57L27.82 103.92Z" fill="url(#paint_linear_1_550_0)" fill-opacity="1.000000" fill-rule="evenodd"/>
</svg>
